HIERARCHY
ROOT Hips
{
   OFFSET 0.00000 0.00000 0.00000
   CHANNELS 6 Xposition Yposition Zposition Zrotation Xrotation Yrotation
   JOINT Spine
   {
      OFFSET 0.000000 14.268601 0.000000
      CHANNELS 3 Zrotation Xrotation Yrotation
      JOINT Spine1
      {
         OFFSET -0.000000 30.788881 0.153192
         CHANNELS 3 Zrotation Xrotation Yrotation
         JOINT HEad
         {
            OFFSET 0.000000 10.480993 0.013608
            CHANNELS 3 Zrotation Xrotation Yrotation
            End Site
            {
               OFFSET -0.348000 15.329041 3.016740
            }
         }
         JOINT LeftShoulder1
         {
            OFFSET 10.788001 -0.434700 -0.264000
            CHANNELS 3 Zrotation Xrotation Yrotation
            JOINT LeftArm
            {
               OFFSET 12.339240 -0.004056 0.386544
               CHANNELS 3 Zrotation Xrotation Yrotation
               JOINT LeftForeArm
               {
                  OFFSET 39.320280 0.118968 -1.709208
                  CHANNELS 3 Zrotation Xrotation Yrotation
                  JOINT LeftHand
                  {
                     OFFSET 33.077163 0.102432 1.226592
                     CHANNELS 3 Zrotation Xrotation Yrotation
                     End Site
                     {
                        OFFSET 20.093162 -0.720000 1.803492
                     }
                  }
               }
            }
         }
         JOINT RightShoulder
         {
            OFFSET -10.788001 -0.434700 -0.264000
            CHANNELS 3 Zrotation Xrotation Yrotation
            JOINT RightArm
            {
               OFFSET -12.339240 -0.004056 0.386544
               CHANNELS 3 Zrotation Xrotation Yrotation
               JOINT RightForeArm
               {
                  OFFSET -39.476518 0.118968 -1.709208
                  CHANNELS 3 Zrotation Xrotation Yrotation
                  JOINT RightHand
                  {
                     OFFSET -32.990522 0.102432 1.226592
                     CHANNELS 3 Zrotation Xrotation Yrotation
                     End Site
                     {
                        OFFSET -19.957442 -0.720000 1.803492
                     }
                  }
               }
            }
         }
      }
   }
   JOINT LeftUpLeg
   {
      OFFSET 10.734961 -10.400485 0.121980
      CHANNELS 3 Zrotation Xrotation Yrotation
      JOINT LeftLeg
      {
         OFFSET 0.000000 -53.307237 1.647240
         CHANNELS 3 Zrotation Xrotation Yrotation
         JOINT LeftFoot
         {
            OFFSET -0.304260 -50.510883 -1.752708
            CHANNELS 3 Zrotation Xrotation Yrotation
            JOINT LeftToes
            {
               OFFSET -0.048000 -5.298108 10.198920
               CHANNELS 3 Zrotation Xrotation Yrotation
               End Site
               {
                  OFFSET 0.096000 -0.056940 11.735748
               }
            }
         }
      }
   }
   JOINT RightUpLeg
   {
      OFFSET -10.734961 -10.400485 0.121980
      CHANNELS 3 Zrotation Xrotation Yrotation
      JOINT RightLeg
      {
         OFFSET 0.000000 -53.307237 1.647240
         CHANNELS 3 Zrotation Xrotation Yrotation
         JOINT RightFoot
         {
            OFFSET 0.304260 -50.510883 -1.752708
            CHANNELS 3 Zrotation Xrotation Yrotation
            JOINT RightToes
            {
               OFFSET 0.048000 -5.298108 10.198920
               CHANNELS 3 Zrotation Xrotation Yrotation
               End Site
               {
                  OFFSET -0.096000 -0.164940 11.735748
               }
            }
         }
      }
   }
}
MOTION
Frames: 12
Frame Time: 0.016670
37.758946 107.331351 -117.091263 14.572586 -24.850899 10.371784 -11.209578 33.693405 128.598119 32.143287 -16.313185 -114.291946 -18.744798 31.181176 8.399829 44.874346 70.335410 -58.963719 -96.812877 55.276605 -221.036902 -0.930254 112.749655 -51.553407 -19.589034 -41.854183 -64.224808 387.800437 221.149723 312.519486 440.493953 307.680843 366.434130 -76.051240 158.861198 94.889960 7.791011 70.214734 27.756227 -2.567000 11.008387 6.579894 7.103663 17.029494 57.562669 -23.230848 22.209911 -33.003235 -14.109198 46.097196 -43.130421 -12.464193 44.520136 20.709823 14.137651 15.628251 -21.957998 -62.540934 -17.228044 32.081009 11.806116 46.394692 -59.389799
36.998882 105.102356 -117.227848 16.475152 -25.128664 14.555205 -17.553310 34.806436 127.618150 32.884530 -18.965489 -112.834828 -17.197178 27.372268 8.918020 45.512559 68.420320 -58.253918 -97.963313 55.522649 -221.402727 -6.896368 108.748421 -45.392239 -22.737322 -38.475910 -64.959006 385.359901 221.638313 317.098007 442.463343 308.733867 365.572188 -83.368176 157.309693 103.522165 3.034003 73.626584 31.273828 -4.446025 8.711139 4.538461 9.365839 21.105559 56.290905 -20.932810 20.302828 -33.544924 -18.592028 45.015362 -44.553358 -10.943150 43.736771 17.095670 16.408735 20.498163 -23.890945 -61.413946 -16.305051 33.484941 11.915173 42.336866 -59.158167
35.889320 102.669724 -117.651270 18.674345 -25.151366 16.413592 -20.823777 39.198859 125.849391 35.503313 -13.259361 -111.387920 -14.239314 24.864252 9.817704 48.674868 65.881648 -53.107569 -99.595387 55.041503 -225.283189 -7.949174 108.988700 -40.880260 -25.913058 -35.324806 -62.441234 384.006349 226.112238 319.979801 438.336788 305.392402 362.209358 -85.624795 157.960337 109.464177 6.290436 76.079189 31.908332 -6.649638 6.196095 3.678479 11.535541 24.740127 53.079627 -18.919059 17.292881 -33.904332 -23.049428 43.472153 -45.415939 -12.147507 42.782140 13.008659 17.414336 22.092874 -25.506730 -59.612129 -12.175050 37.306551 10.624400 53.411461 -64.962462
34.558336 99.946040 -118.101671 21.741826 -26.322588 23.527326 -21.826892 46.449770 122.437056 38.228265 -9.117150 -109.388048 -10.809768 20.680486 11.463721 51.636654 62.055076 -50.297807 -99.053186 58.172926 -224.787645 -7.750507 114.647594 -41.704575 -19.166259 -49.049323 -56.168235 384.070143 228.156390 322.427112 433.788074 302.048341 358.332050 -87.375400 158.603577 114.447988 4.313849 80.000462 35.956609 -8.663564 5.610762 3.411978 15.297278 27.156656 47.314459 -17.064099 13.469074 -34.236241 -27.493412 41.752407 -45.898014 -12.038609 44.180187 7.098499 22.419015 26.273404 -26.100528 -58.847920 -12.948227 36.619984 10.529345 39.343778 -64.936104
33.053817 96.576003 -118.729027 24.679879 -26.276207 29.300306 -22.035302 56.242472 117.558511 41.483581 -9.762314 -107.713463 -8.518182 13.699047 13.197164 50.194411 60.699912 -45.988944 -90.777080 68.911582 -232.217634 -16.119238 117.430951 -42.793645 -27.502015 -34.917645 -69.214200 382.300414 230.924324 329.188589 431.604763 299.019863 352.431040 -89.592643 160.787844 118.092837 3.994244 69.681979 28.500305 -10.406347 5.130891 4.942052 19.778843 27.067563 38.656528 -15.465073 8.522543 -34.257107 -32.231413 39.515619 -46.788073 -12.441372 44.434175 -1.348349 26.021487 30.560927 -23.200404 -57.124564 -12.873523 36.282761 3.894957 50.674154 -64.663853
31.534247 93.128508 -119.306877 26.832637 -25.932300 34.209986 -28.140282 70.695880 112.882168 41.032911 -8.174288 -105.533697 -5.640087 5.783777 14.608759 48.512706 50.762803 -44.681100 -87.735289 71.436976 -238.551433 -22.151746 122.171334 -44.869975 -19.129751 -51.592049 -60.072982 384.001185 231.844761 327.025769 427.914958 297.519734 344.693228 -77.047922 160.037862 121.496798 -1.943330 83.060209 45.780699 -12.456940 4.112424 9.835986 26.427960 25.515036 26.986899 -13.882055 3.529233 -32.553942 -37.376161 36.319459 -47.605411 -11.387960 44.619744 -12.449463 19.652718 39.710088 -5.506299 -53.735782 -13.849768 35.423161 -0.012346 38.154769 -73.312218
29.916851 89.719609 -119.967888 35.336428 -31.252333 38.441425 -32.193601 82.786619 112.896279 38.995421 -0.117534 -98.960487 -1.975978 -1.564175 15.558138 46.526880 45.206276 -46.156386 -87.580408 74.027762 -239.392967 -24.632644 127.153260 -45.882615 -24.594753 -41.074671 -68.738443 375.929596 232.983463 324.568868 415.540240 292.402748 334.302953 -80.257906 156.358835 115.998687 -4.966861 64.160543 39.775511 -14.385703 8.945702 15.158732 31.496062 26.320030 11.337100 -11.393378 0.922037 -31.921108 -41.496965 33.514430 -49.411955 -9.880292 40.529950 -14.903900 -18.275232 62.558372 40.405651 -63.529761 -13.412644 38.723689 -1.481358 43.125312 -65.774189
28.203668 86.431550 -120.598972 39.968993 -30.490309 58.219050 -40.697310 92.721881 106.544585 45.101583 3.602849 -84.438712 0.843209 -8.166976 16.373277 48.503537 39.297825 -43.185162 -86.708480 74.331002 -240.054020 -27.536154 135.514409 -48.256574 -30.340086 -45.541430 -64.149854 370.538937 234.163173 320.114519 403.515200 285.658045 325.636427 -78.118219 154.695848 123.003757 -14.061661 71.152246 54.952277 -12.612614 9.413528 16.066131 37.445696 21.025154 -6.424025 -9.108780 -3.452485 -32.892886 -45.335702 31.011197 -52.015186 -6.340824 47.350225 21.997166 -122.053527 160.937985 93.915921 -74.898796 -5.278332 39.432465 15.000827 34.881486 -76.278863
26.444535 83.469781 -121.298216 39.863354 -29.671056 70.101988 -48.479153 106.299812 106.398412 49.206295 11.787210 -71.814651 -0.125446 -9.579409 17.005610 47.364859 29.286652 -42.786600 -88.120280 75.547391 -243.412970 -31.581862 139.226071 -53.145299 -35.402445 -41.160947 -70.530104 364.421792 234.879769 327.073498 401.745006 292.675928 318.370089 -76.780130 146.045769 138.368841 -8.120961 64.136112 63.011248 -10.890101 6.409135 21.890466 40.132839 16.663035 -19.634466 -7.862336 -9.913853 -31.271492 -50.475081 27.006501 -54.225849 -2.681543 49.342485 39.465571 -126.554171 194.093732 85.761508 -71.043263 14.051906 31.599706 14.795966 40.583553 -83.384828
24.987468 80.889052 -121.961678 39.130372 -21.940675 79.168142 -63.222266 115.019675 104.908250 45.884378 21.017085 -66.288202 -4.717021 -11.464881 17.866043 46.248683 27.376066 -43.199843 -92.787491 71.702581 -245.434706 -29.080842 142.218281 -50.761037 -41.835599 -42.377574 -73.746475 355.595303 243.447804 351.866484 389.507821 281.371419 315.834094 -82.586502 135.298015 146.054607 -15.054813 62.219581 70.589650 -15.191222 -0.923402 28.268652 42.526554 15.398766 -31.069882 -4.542595 -12.406375 -31.239393 -53.362318 24.972360 -55.384570 -5.167135 43.629097 53.797285 -131.088187 208.748203 79.596996 -76.457035 33.069307 27.645320 30.766809 41.682401 -91.336363
24.207174 78.386792 -122.417992 34.124281 -23.046218 82.736875 -77.790459 120.100407 98.009875 50.143212 46.066737 -55.396195 -9.113750 -13.871396 18.764084 47.237902 11.644494 -45.649863 -93.969353 68.530341 -245.276218 -23.153375 138.169714 -42.724595 -48.638047 -36.818247 -81.458161 353.005159 252.496521 351.566611 378.899744 282.989245 290.188018 -85.658891 123.031282 153.435214 -21.093658 51.107140 77.466325 -12.603335 -7.564424 36.941829 43.433275 11.860081 -37.592296 -1.105326 -16.324769 -29.205844 -56.463135 23.177475 -56.931013 -3.493290 32.663754 65.422373 -129.929609 214.479210 75.019355 -79.117223 53.022103 29.757505 45.346637 44.450967 -92.000428
23.744249 75.080956 -123.591936 28.985465 -20.080049 73.634801 -83.401070 115.492625 106.783881 51.525397 57.414037 -43.584605 -13.914362 -18.276941 19.894080 49.284917 1.925923 -52.228213 -95.374344 64.398562 -240.375722 -19.713499 129.638630 -41.705214 -55.855197 -33.320385 -69.516989 348.344265 263.146862 361.417821 365.821080 273.898563 285.321782 -91.003815 111.317289 158.310944 -29.051482 46.745357 84.507513 -13.124337 -14.773201 50.229447 39.688156 10.961164 -39.132585 2.108896 -19.407084 -24.381677 -59.759251 20.562010 -58.618077 -10.599646 21.460632 94.991293 -134.579015 227.963274 75.620289 -88.420760 65.367000 30.218519 56.107228 29.799654 -93.861388
